<?xml version="1.0" encoding="UTF-8"?>
<svg id="Layer_1" data-name="Layer 1" xmlns="http://www.w3.org/2000/svg" viewBox="0 0 16 16">
  <path d="M1.57,5.82c.12-.13.26-.24.42-.31.16-.08.34-.11.52-.11s.36.04.53.11c.17.07.3.19.4.35l.75-.82c-.19-.24-.45-.41-.76-.53-.31-.12-.63-.18-.95-.18-.35,0-.68.06-.98.18-.3.12-.56.29-.79.52-.22.23-.4.5-.53.82-.13.32-.2.68-.2,1.07s.06.74.19,1.06.3.59.52.82c.22.23.48.41.78.53.3.13.62.19.97.19.11,0,.21,0,.3-.01l.65-1.51c-.09.12-.21.21-.34.29-.17.09-.36.14-.58.14-.19,0-.37-.04-.52-.11-.16-.08-.29-.18-.41-.31-.12-.13-.21-.29-.27-.48-.06-.19-.09-.39-.09-.61s.03-.42.09-.6c.06-.18.15-.34.27-.48ZM6.94,4.47h-1.17l-2.07,5.03h1.3l.36-.99h1.92l.29.77c.18-.49.45-.93.78-1.33l-1.42-3.47ZM5.71,7.54l.63-1.72.62,1.72h-1.24ZM14.82,8.18c-.76-.76-1.7-1.15-2.83-1.16-1.13.02-2.07.41-2.81,1.16s-1.14,1.7-1.17,2.84c.03,1.13.43,2.08,1.17,2.84.75.76,1.68,1.15,2.81,1.16,1.13-.02,2.07-.41,2.83-1.16.76-.76,1.15-1.7,1.19-2.84-.03-1.13-.43-2.08-1.19-2.84ZM12.63,12.78c-.17.17-.4.26-.63.27h-.02c-.23,0-.46-.09-.63-.27l-1.47-1.47c-.36-.36-.36-.93,0-1.29.35-.35.93-.35,1.28,0l.46.46.4,1.03.52-1.2,1.26-1.26c.35-.35.93-.35,1.28,0,.01,0,.02.02.03.03.33.36.32.91-.03,1.25l-2.44,2.44Z"/>
</svg>