<?xml version="1.0" encoding="UTF-8"?>
<svg id="Layer_1" data-name="Layer 1" xmlns="http://www.w3.org/2000/svg" viewBox="0 0 16 16">
  <defs>
    <style>
      .cls-1 {
        fill-rule: evenodd;
      }
    </style>
  </defs>
  <path class="cls-1" d="M15,0H1C.45,0,0,.45,0,1v10c0,.55.45,1,1,1h.52v-1h-.52V1h14v10h-5.48v1h5.48c.55,0,1-.45,1-1V1c0-.55-.45-1-1-1ZM5.5,4.02c-1.93,0-3.5,1.57-3.5,3.5s1.57,3.5,3.5,3.5,3.5-1.57,3.5-3.5-1.57-3.5-3.5-3.5ZM5.5,12.02c-.92,0-1.78-.28-2.5-.76l-1,4.74,3.49-2,3.51,2-1-4.74c-.71.48-1.57.75-2.49.75ZM13,2h-4c-.54-.01-1.01.46-1,1-.01.54.46,1.01,1,1h4c.54.01,1.01-.46,1-1,.01-.54-.46-1.01-1-1ZM13,5h-2c-.54-.01-1.01.46-1,1-.01.54.46,1.01,1,1h2c.54.01,1.01-.46,1-1,.01-.54-.46-1.01-1-1Z"/>
</svg>