<?xml version="1.0" encoding="UTF-8"?>
<svg id="Layer_1" data-name="Layer 1" xmlns="http://www.w3.org/2000/svg" viewBox="0 0 16 16">
  <path d="M11.02,6.21l2.96-3.62c.27-.33.33-.79.14-1.18-.18-.39-.57-.64-1-.64H1.12c-.43,0-.82.25-1,.64-.19.39-.13.85.14,1.18l5.08,6.21v2.2c0,.28.13.54.36.71l1.78,1.33s.09.06.13.08c-.31-.64-.49-1.36-.49-2.12,0-2.36,1.67-4.33,3.9-4.79ZM14.82,8.18c-.76-.76-1.7-1.15-2.83-1.16-1.13.02-2.07.41-2.81,1.16-.75.76-1.14,1.7-1.17,2.84.03,1.13.43,2.08,1.17,2.84.75.76,1.69,1.15,2.81,1.16,1.13-.02,2.07-.41,2.83-1.16.76-.76,1.15-1.7,1.18-2.84-.03-1.13-.43-2.08-1.18-2.84ZM12.63,12.78c-.17.17-.4.26-.63.27h-.02c-.23,0-.46-.09-.63-.27l-1.47-1.47c-.35-.36-.35-.93,0-1.29s.93-.35,1.28,0l.46.46.4,1.03.52-1.2,1.26-1.26c.35-.35.93-.35,1.28,0,0,0,.02.02.03.03.33.36.32.91-.03,1.25l-2.44,2.44Z"/>
</svg>