<?xml version="1.0" encoding="UTF-8"?>
<svg id="Layer_1" data-name="Layer 1" xmlns="http://www.w3.org/2000/svg" viewBox="0 0 16 16">
  <path d="M6.05,9.15H1.78c-.43.02-.78.35-.78.79v4.29c0,.42.35.78.78.76h4.27c.43.01.78-.35.78-.76v-4.29c.04-.4-.38-.81-.78-.79ZM5.52,13.7h-3.2v-3.21h3.2v3.21ZM6.05,1H1.78c-.43.02-.78.35-.78.79v4.29c0,.42.35.78.78.76h4.27c.43.01.78-.35.78-.76V1.79c.04-.4-.38-.81-.78-.79ZM5.52,5.54h-3.2v-3.21h3.2v3.21ZM14.23,1h-4.27c-.43.02-.78.35-.78.79v4.29c0,.42.35.78.78.76h4.27c.43.01.78-.35.78-.76V1.79c.04-.4-.38-.81-.78-.79ZM13.69,5.54h-3.2v-3.21h3.2v3.21ZM14.23,9.17h-4.27c-.43.02-.78.35-.78.79v4.29c0,.42.35.78.78.76h4.27c.43.01.78-.35.78-.76v-4.29c.04-.4-.38-.81-.78-.79ZM13.69,13.71h-3.2v-3.21h3.2v3.21Z"/>
</svg>