<?xml version="1.0" encoding="UTF-8"?>
<svg id="Layer_1" data-name="Layer 1" xmlns="http://www.w3.org/2000/svg" viewBox="0 0 16 16">
  <defs>
    <style>
      .cls-1 {
        fill-rule: evenodd;
      }
    </style>
  </defs>
  <path class="cls-1" d="M14.25,4.26c-.97,0-1.75.78-1.75,1.75,0,.08.01.16.02.24l-2.67.88c-.24-.81-.81-1.46-1.55-1.83l.38-1.07c.11.02.21.03.32.03,1.17,0,2.13-.95,2.13-2.12S10.18.01,9.01.01s-2.12.95-2.12,2.12c0,.81.46,1.51,1.13,1.87l-.37,1.06c-.21-.04-.42-.07-.64-.07-.86,0-1.64.37-2.18.96l-1.25-.91c.07-.17.11-.36.11-.55,0-.83-.67-1.5-1.5-1.5s-1.5.67-1.5,1.5.67,1.5,1.5,1.5c.51,0,.95-.25,1.22-.64l1.11.98c-.32.48-.51,1.05-.51,1.67,0,.88.38,1.66.99,2.21l-1.23,1.46-.05.19-.17.05h0c-.36-.25-.81-.4-1.28-.4-1.24,0-2.25,1.01-2.25,2.25s1.01,2.25,2.25,2.25,2.25-1.01,2.25-2.25c0-.54-.2-1.02-.51-1.41h0v-.22l.22-.04,1.32-1.48c.43.24.92.39,1.45.39.61,0,1.17-.18,1.64-.5l.79,1.07c-.26.23-.43.55-.43.93,0,.69.56,1.25,1.25,1.25s1.25-.56,1.25-1.25-.56-1.25-1.25-1.25c-.14,0-.28.04-.4.08l-.73-1.21c.55-.54.88-1.29.88-2.12,0-.14-.02-.27-.04-.4l2.68-.9c.26.63.89,1.07,1.61,1.07.97,0,1.75-.78,1.75-1.75s-.78-1.75-1.75-1.75Z"/>
</svg>