<?xml version="1.0" encoding="UTF-8"?>
<svg id="Layer_1" data-name="Layer 1" xmlns="http://www.w3.org/2000/svg" viewBox="0 0 16 16">
  <path d="M14,1H2c-.55,0-1,.45-1,1v12c0,.55.45,1,1,1h12c.55,0,1-.45,1-1V2c0-.55-.45-1-1-1ZM4.12,3v2h-2.12v-2h2.12ZM4.12,6v2h-2.12v-2h2.12ZM2,9h2.12v2h-2.12v-2ZM4.88,9h4.25v2h-4.25v-2ZM4.88,8v-2h4.25v2h-4.25ZM4.88,5v-2h4.25v2h-4.25ZM2,14v-2h2.12v2h-2.12ZM4.88,14v-2h4.25v2h-4.25ZM14,14h-4.12v-2h4.12v2ZM14,11h-4.12v-2h4.12v2ZM14,8h-4.12v-2h4.12v2ZM14,5h-4.12v-2h4.12v2Z"/>
</svg>