<?xml version="1.0" encoding="UTF-8"?>
<svg id="Layer_1" data-name="Layer 1" xmlns="http://www.w3.org/2000/svg" viewBox="0 0 16 16">
  <defs>
    <style>
      .cls-1 {
        fill-rule: evenodd;
      }
    </style>
  </defs>
  <path class="cls-1" d="M5,11.02h6v-4.02h-6v4.02ZM10,6.5v-1.5c0-.55-.45-1-1-1h-2c-.55,0-1,.45-1,1v1.5h1v-1.5h2v1.5h1ZM8,14c-2.08,0-3.92-1.06-4.99-2.67l1.42-.82L.03,8,0,13.06l1.27-.74c1.42,2.21,3.91,3.67,6.73,3.67,3.35,0,6.22-2.06,7.41-4.98h-2.22c-1.04,1.78-2.97,2.98-5.19,2.98ZM14.76,3.72c-1.42-2.23-3.92-3.72-6.76-3.72C4.28,0,1.14,2.55.25,6h2.09c.82-2.33,3.05-4,5.66-4,2.1,0,3.95,1.08,5.02,2.72l-1.45.84,4.4,2.51.03-5.06-1.24.72Z"/>
</svg>