<?xml version="1.0" encoding="UTF-8"?>
<svg id="Layer_1" data-name="Layer 1" xmlns="http://www.w3.org/2000/svg" viewBox="0 0 16 16">
  <path d="M1.01,12.3c-.03,1.47,2.66,1.47,2.63,0,.03-1.47-2.66-1.47-2.63,0ZM1.01,8c-.03,1.47,2.66,1.47,2.63,0,.03-1.47-2.66-1.47-2.63,0ZM1.01,3.7c-.03,1.47,2.66,1.47,2.63,0,.03-1.47-2.66-1.47-2.63,0ZM4.5,12.3c-.01.58.49,1.09,1.08,1.08h8.35c1.4.03,1.4-2.18,0-2.15H5.58c-.58-.01-1.09.49-1.08,1.08ZM4.5,8c-.01.58.49,1.09,1.08,1.08h8.35c1.41,0,1.41-2.16,0-2.15H5.58c-.58-.01-1.09.49-1.08,1.08ZM4.5,3.7c-.01.58.49,1.09,1.08,1.08h8.35c1.4.03,1.4-2.18,0-2.15H5.58c-.58-.01-1.09.49-1.08,1.08Z"/>
</svg>