<svg viewBox="0 0 16 16" xmlns="http://www.w3.org/2000/svg"><path d="m14 3.8c0-1-.73-1.81-2.11-1.81-.66 0-1.48.01-2.09.01.99 0 2.25.8 2.25 1.8v8.4c0 1-1.26 1.8-2.25 1.8.61 0 1.43.01 2.09.01 1.38 0 2.11-.81 2.11-1.81z" fill-rule="evenodd"/><path d="m10.5 7.51h-1.98v-2.01h-1.04v2.01h-1.98v1.04h1.98v1.95h1.04v-1.95h1.98z"/><path d="m2 3.8c0-1 .73-1.81 2.11-1.81.66 0 1.48.01 2.09.01-.99 0-2.25.8-2.25 1.8v8.4c0 1 1.26 1.8 2.25 1.8-.61 0-1.43.01-2.09.01-1.38 0-2.11-.81-2.11-1.81z" fill-rule="evenodd"/></svg>